<?xml version="1.0" encoding="UTF-8"?>
<svg version="1.1" viewBox="0 0 1600 900" width="3840" height="2160" xmlns="http://www.w3.org/2000/svg">
<path transform="translate(754,21)" d="m0 0h92l55 2 55 3 23 2 56 5 49 6 48 7 39 7 27 5 36 8 19 4 49 13 27 8 37 12 30 11 27 11 24 11 32 16 23 14 15 10 18 14 10 9 8 7 12 13 13 18 8 15 5 15 2 12v12l-4 16-7 16-7 11-8 11-7 8-5 5-8 7-5 5-12 11-18 13-14 9-25 15-19 9-16 8-30 13-24 9-19 7-33 11-31 9-21 6-40 10-41 9-19 4-26 5-43 7-35 5-39 5-75 7-70 4-23 1-42 1h-55l-39-1-60-3-33-2-26-2-20-2-37-4-48-6-25-4-36-6-43-8-13-3-40-9-31-8-13-4-12-3-39-12-24-8-25-9-27-11-25-11-26-13-27-16-12-8-11-8-14-11-10-9-8-7-7-7-9-11-9-12-9-16-5-13-2-10v-17l3-12 5-12 7-13 12-16 11-12 14-14 9-7 14-11 22-15 28-16 19-10 28-13 30-12 34-12 29-9 25-7 15-4 19-5 47-11 40-8 34-6 22-4 57-8 43-5 47-4 7-1 53-3 41-2zm160 59 4 4 16 12 14 11 15 12 17 13 11 9 14 11 16 13 17 14 10 8 11 9 14 11 13 11 9 7 14 11 12 10 11 9 18 14 15 12 12 9 11 8 18 13 15 10 11 5 15 4 15 1 18-2 21-5 18-6 21-9 13-8 13-11 11-13 5-10 4-15v-15l-3-12-7-14-9-11-10-10-16-12-19-11-16-8-27-11-36-12-33-10-34-9-39-9-43-8-64-9-106-11zm-239 0-81 8-48 6-48 7-40 8-54 13-29 8-38 12-29 11-19 8-15 8-19 12-13 11-8 7-8 10-6 10-5 12-2 10v10l4 16 5 10 12 14 10 9 13 8 19 9 18 6 21 5 13 2h25l15-4 15-8 20-14 40-30 10-8 13-10 13-11 14-11 11-9 14-11 13-11 13-10 11-9 16-13 10-8 13-10 16-13 9-7 10-8 14-11 16-13 14-11 11-9v-1zm116 84-14 3-20 10-18 11-19 13-16 12-13 10-34 26-17 14-14 12-17 14-13 11-7 6-4 6v9l10 21 10 15 13 16 6 3 40 5 32 2 58 2h39l79-1 50-2 34-3 18-2 8-4 10-11 10-15 9-16 4-9v-10l-7-8-14-12-10-8-14-12-22-18-14-12-16-12-18-14-14-10-18-13-19-12-18-10-13-5-8-2z" fill="#55504F"/>
<path transform="translate(584,314)" d="m0 0h1l2 10 11 21 8 12 12 15 6 3 40 5 32 2 58 2h39l79-1 50-2 34-3 18-2 8-4 9-10 10-15 9-16 4-9 1-7 14 5 35 14 12 5 105 42h2l-5-6-6-7-15-14-16-15-5-6 27 1h101l196 1-1 3-8 7-5 4-4 4h-2v2l-11 8-15 10-11 6-18 10-10 4-5 3-13 5-11 5-37 13-18 5-12 4-23 6-36 8-12 3-14 3-22 4-32 6-47 8-44 6-55 6-28 2-3 1-35 2-9 1-50 2-8 1h-119l-8-1-70-3-30-3-27-2-50-5-43-6-45-7-25-5-43-8-7-2-16-3-16-4-42-10-29-9-27-9-24-10-18-8-20-10-22-13-17-12-11-9-11-10 1-3 205-1 81 2 16 3 9 3v4l-12 11-9 9-8 7-1 4-5 5 36-15 28-11 27-11 26-10 8-4 22-9 8-3z" fill="#F8F8F8"/>
<path transform="translate(23,240)" d="m0 0h7l1 3-7 15-3 11 40 1 15 2 16 3 7 2 12 2 2 11 6 18v2h2l4 8 11 14 12 12 11 9 15 11 21 13 29 15 23 10 23 9 30 10 28 8 28 7 20 4 11 3 12 2 12 3 25 5 24 4 17 3 42 7 38 5 60 6 28 2 19 2 70 3 8 1h119l8-1 50-2 24-2 20-1 3-1 28-2 63-7 49-7 34-6 24-4 12-3 18-3 14-3 25-6 15-3 16-4 25-7 15-5 17-5 25-9 11-5 13-5 7-4 10-4 10-6 8-4 17-10 16-12h2v-2l5-2 1-3 9-7 5-5 10-11 6-9 1-3h2l2-5 5-15 3-14 9-1 13-4 19-3 17-1h32l-3-12-5-12-2-5 2-1h7l4 4 7 16 4 17v14l-4 16-7 16-7 11-8 11-7 8-5 5-8 7-5 5-12 11-18 13-14 9-25 15-19 9-16 8-30 13-24 9-19 7-33 11-31 9-21 6-40 10-41 9-19 4-26 5-43 7-35 5-39 5-75 7-70 4-23 1-42 1h-55l-39-1-60-3-33-2-26-2-20-2-37-4-48-6-25-4-36-6-43-8-13-3-40-9-31-8-13-4-12-3-39-12-24-8-25-9-27-11-25-11-26-13-27-16-12-8-11-8-14-11-10-9-8-7-7-7-9-11-9-12-9-16-5-13-2-10v-17l3-12 5-12 4-8z" fill="#55504F"/>
<path transform="translate(754,21)" d="m0 0h92l55 2 55 3 23 2 56 5 49 6 48 7 39 7 27 5 36 8 19 4 49 13 27 8 31 10-1 2-12-3-5 1 34 12 35 14 33 15 29 15 23 14 17 12 16 13 12 11 11 11 13 17 1 4-45 11-31 8-4-1-5-13-9-14-12-14-8-8-11-9-15-11-19-12-22-12-31-15-32-13-13-5-36-12-22-7-14-4-9-2-16-4-18-5-28-6-50-10-20-3-17-3-39-5-43-5-46-4-70-4-22-12-15-6-18-5-13-2h-24l-19 3-15 4-23 10-16 8-64 4-48 4-48 6-37 5-11 2-40 7-25 5-25 6-11 2-15 4-17 4-24 7-11 3-17 5-26 8-25 9-31 13-29 14-18 10-19 12-21 16-13 12-7 7-10 13-7 12-5 12-13-4-48-12-17-4 2-5 10-13 13-14 8-7 14-12 18-13 17-11 19-11 23-12 27-13 30-12 34-12 6-2-4-2-11 2v-2l32-10 25-7 15-4 19-5 47-11 40-8 34-6 22-4 57-8 43-5 47-4 7-1 53-3 41-2z" fill="#F8F8F8"/>
<path transform="translate(789,31)" d="m0 0h24l18 3 21 7 16 8 13 7 70 4 46 4 61 7 25 4 13 2 24 4 46 9 15 3 15 4 30 7 5 2 13 3 22 7 17 5 21 7 7 3 16 6 29 12 33 16 20 11 24 16 14 11 13 12 11 12 9 14 4 8 4 13v11l-20-2-31-4-29-4-22-4-1-1v-21l-3-12-7-14-9-11-9-9-16-12-19-11-16-8-27-11-36-12-33-10-34-9-39-9-43-8-64-9-106-11h-8l15 12 17 13 15 12 17 13 11 9 14 11 16 13 17 14 10 8 11 9 14 11 13 11 9 7 14 11 12 10 11 9 18 14 15 12 12 9 2 4-8 1-7 4-1 4-5-2-16-13-10-8-9-7v-2l-4-2-17-14-13-11-14-11-9-8-10-8-13-11-11-9-13-11-11-9-13-11-11-9-13-11-11-9-14-12-22-18-13-11-11-9-13-9-22-13-23-12-15-5-14-2h-24l-16 4-15 5-24 11-23 12-16 13-13 11-11 9-13 11-11 9-13 11-11 9-13 11-17 14-14 12-11 9-13 11-22 18-13 11-10 8-13 11-14 11-4 4h-2v2h-2l-1 6-9 11-12 8-10 4h-4v2l-7 1-5-3-5-2-7-2 1-4 14-10 13-10 10-8 13-10 13-11 14-11 11-9 14-11 13-11 13-10 11-9 16-13 10-8 13-10 16-13 9-7 10-8 14-11 16-13 14-11 10-8-19 1-88 9-73 10-45 9-54 13-29 8-38 12-29 11-19 8-15 8-19 12-13 11-7 6-8 10-6 10-5 12-2 10v17l-5 2-38 6-18 2-30 4-12 1v-11l5-15 7-12 8-10 9-10 9-9 14-11 15-11 25-15 27-14 32-14 23-9 27-9 25-7 10-3 18-5 23-6 17-4 6-2 15-3 22-5 36-7 32-5 11-2 51-7 36-4 52-4 50-3 22-11 20-8 22-5z" fill="#312623"/>
<path transform="translate(676,667)" d="m0 0h245v45l-227 1-4 2-1 2-1 33h212v45h-212l1 32 3 4 229 1v45h-246l-13-4-8-6-8-9-5-12-1-5v-137l3-12 7-11 8-7 10-5z" fill="#E8041C"/>
<path transform="translate(418,403)" d="m0 0 9 6 42 9 57 11 37 5 44 4 50 3 51 2 60 1h59l54-1 67-3 57-4 41-4 35-5 44-8 44-9 8-4 4-3 26 1h133l3 3-34 12-18 5-12 4-23 6-36 8-12 3-14 3-22 4-32 6-47 8-44 6-55 6-28 2-3 1-35 2-9 1-50 2-8 1h-119l-8-1-70-3-30-3-27-2-50-5-43-6-45-7-25-5-43-8-7-2-16-3-16-4-42-10-29-9-27-9-5-2-1-4h156z" fill="#A9ACAA"/>
<path transform="translate(960,667)" d="m0 0h248l13 4 11 8 8 11 3 9 1 6v48l-3 12-6 10-7 7-9 5-9 3h-82v2l4 2 14 10 18 13 13 10 18 13 38 28 11 8v1h-79l-13-10-14-11-18-14-15-12-9-7-14-11-18-14-14-11-10-8-13-10-10-8-11-8v124h-47v-209zm46 45v40h191l5-5v-29l-3-5-3-1z" fill="#E8011A"/>
<path transform="translate(43,667)" d="m0 0h241v49l-225 1-3 1v107l2 2 226 1v49h-243l-10-3-10-6-8-9-5-11-1-4v-142l3-11 6-9 8-8 11-5z" fill="#E8031C"/>
<path transform="translate(584,314)" d="m0 0h1l2 10 11 21 8 12 12 15 5 3-2 2-147 26-15 3 12-1 14 1h9l13 2 17 2 8 1 5 1 12 2 13 3 16 2 21 2 8 1 39 5 27 4 9 1 7 1 43 5h5l3 1 6 1 26 1v1h-50l-62-2-51-3-36-3h-19l-33-5-52-10-42-9-9-6-10 1h-149l1 1-3 1-27-11-16-8-21-11-19-12-16-12-14-12-3-3 1-3 205-1 81 2 16 3 9 3v4l-12 11-9 9-8 7-1 4-5 5 36-15 28-11 27-11 26-10 8-4 22-9 8-3z" fill="#F8F8F8"/>
<path transform="translate(323,667)" d="m0 0h45l1 1v79h187v-80h46l1 1v208l-1 1h-46v-81h-187v81h-47v-209z" fill="#E8021B"/>
<path transform="translate(623,375)" d="m0 0 41 5 32 2 58 2h39l79-1 50-2 34-3 18-2 4-1 20 4 102 18 33 6v1h-11l-7 2-22 3-6 2-26 5-8 2-23 3-21 3-5 1-45 5-21 2-3 1-14 1-8 2-30 2-14 2h-11l1 1 44-1 61-3 52-4 38-4 39-6 60-12 6-2 4-1 6 1v2l-70 14-45 7-38 4-52 4-57 3-26 1-54 1h-59l-60-1-51-2-50-3-44-4v-2h10l50 4 61 3 38 1h24l-8-1-5-1-38-4-11-1-2-1-24-3-13-2-65-8-9-1-13-2-21-4-5-1-20-2-18-3h-12l-17-1-6 1h-8v-1l170-30z" fill="#F8F8F8"/>
<path transform="translate(789,44)" d="m0 0h24l14 2 17 6 25 13 23 14 10 8 17 14 13 11 11 9 13 11 11 9 14 12 11 9 13 11 11 9 13 11 11 9 13 11 11 9-2 1-1 42 1 2-4-2-15-13-22-18-17-14-17-13-10-8-30-23-16-12-18-13-51-34-15-9-14-7-13-4-9-2h-21l-16 4-15 6-19 11-33 22-17 12-18 13-19 14-13 10-16 12-16 13-13 10-17 14-11 9-13 11-11 9h-4l-1-3-1-40 4-5 11-9 13-11 11-9 13-11 11-9 26-22 11-9 13-11 11-9 13-11 11-9 13-11 9-7 10-6 23-12 23-10 16-5z" fill="#F8F8F8"/>
<path transform="translate(1253,667)" d="m0 0h67l8 7 17 16 13 12 16 15 9 9 8 7 17 16 9 9 6 5 4-1 32-32 8-7 30-30 8-7 19-19h68l-2 4-10 9-17 17-8 7-30 30-8 7-20 20-8 7-29 29-8 7-1 73h-57l-1-72-36-36-8-7-19-19-8-7-27-27-2-1v-2l-4-2-24-24-8-7-4-4z" fill="#E8021A"/>
<path transform="translate(1347,99)" d="m0 0 13 3 8 2 20 7 28 11 12 5 15 7 19 9 22 12 18 11 15 10 18 14 10 9 8 7 12 13 13 18 1 4h-9l8 20 2 10h-38l-20 2-18 4-7 2h-8l-1 9-4 15-5 10h-2l-1 4-7 10-8 9-198-1h-110l-16-1 13 13 8 7 8 8 8 7 5 6h-3l-14-14-8-7-17-16-8-8-8-7-4-6-16-15-11-9-14-13-11-9-5-6 1-40 1-2 5 1 14 12 11 9 13 11 10 8 8 6v2l4 2 12 10 14 11 9 6 2-4 7-4 6-1 2 1 1-2 16 12 10 7 15 10 11 5 15 4 15 1 18-2 21-5 18-6 21-9 13-8 13-11 10-12 5-10 3-10 13 3 32 5 33 4 26 4-1-15 25-7 50-12h4l-7-11-12-14-14-14-11-9-13-10-18-12-22-13-29-15-31-14-36-14-34-12v-1h6z" fill="#C0C0C0"/>
<path transform="translate(251,99)" d="m0 0 7 2-3 2-35 12-37 15-33 16-21 11-21 13-16 11-13 10-14 12-13 12-9 11-8 11-1 2h6l15 4 32 8 23 6 2 2-1 14 49-7 17-2 32-5 6-2 4 13 7 11 11 12 13 10 19 10 15 6 21 6 23 4h25l15-4 15-8 20-14 12-9 1 3 7 2 8 3 5 1h3v-2l13-4 11-8 5-5 6-8 1-4h2v-2l11-9 13-11 11-9 16-13 8-7 2 1 1 40 2 5-14 12-15 13-10 9-8 7-12 11-14 13-2 4-12 12-8 7-17 16-5 4v-3l17-16 8-8 4-3v-2l-17-5-8-1-81-2-205 1h-3l-10-11-8-12v-3h-2l-5-13-3-10v-8l-13-1-9-3-17-3-19-1-33-1 3-12 7-15v-2h-7l-3 1 2-5 12-16 11-12 14-14 9-7 14-11 22-15 28-16 19-10 28-13 30-12 28-10 8-1z" fill="#C0C0C0"/>
<path transform="translate(452,455)" d="m0 0h8l7 1 672-1 4 2-20 4-50 8-59 7-31 3-17 1-3 1-35 2-9 1-50 2-8 1h-119l-8-1-70-3-30-3-27-2-50-5-43-6-45-7-17-4z" fill="#C0C0C0"/>
<path transform="translate(1582,281)" d="m0 0h10l1 10-4 16-7 16-7 11-8 11-7 8-5 5-8 7-5 5-12 11-18 13-14 9-25 15-19 9-16 8-30 13-24 9-19 7-33 11-31 9-21 6-40 10-41 9-19 4-26 5-43 7-35 5-39 5-75 7-70 4-23 1-42 1h-55l-39-1-60-3-33-2-26-2-20-2-37-4-48-6-25-4-36-6-43-8-13-3-40-9-31-8-13-4-12-3-39-12-24-8-25-9-27-11-25-11-26-13-27-16-12-8-11-8-14-11-10-9-8-7-7-7-9-11-9-12-9-16-5-13-2-9 1-10h10l2 15 5 15 8 15 12 16 11 12 12 12 11 9 15 11 20 14 20 12 23 12 26 11 33 13 28 10 33 11 46 13 40 10 46 10 42 8 49 8 45 6 67 7 54 4 37 2 73 2h45l48-1 48-2 58-4 61-6 64-8 49-8 55-11 52-12 43-11 50-16 36-13 31-12 20-8 25-12 17-10 27-18 11-8 10-8 14-12 9-9 11-14 7-10 9-17 5-19z" fill="#332724"/>
<path transform="translate(791,96)" d="m0 0h13l15 2 13 4 16 8 12 7 36 24-1 13v51l-1 5 2 3-5-2-13-10-21-14-15-9-15-8-12-4-5-1h-19l-14 3-20 10-18 11-16 11-2-1 2-5v-65l15-10 18-11 17-8z" fill="#A9ACAA"/>
<path transform="translate(590,477)" d="m0 0h17l38 3 19 2 70 3 8 1h119l8-1 50-2 24-2 20-1 3-1 28-2h15l-1 3-13 4-9 2-4 2-11 1-6 3-7 1-2 2-9 1-4 2-9 1-7 3-10 2-11 3-6 3-21 5-5 2-9 2-10 3-10 4h-9l-5 3h-10l-10 3-2 2h-14l-10-4-17-1-4-3-14-3-15-4-10-2-8-3-10-2-4-2-9-2-14-5-9-1-5-3h-7l-6-3-13-4-10-2-2-1-11-1-3-2-13-3-6-4h-5z" fill="#484340"/>
<path transform="translate(251,99)" d="m0 0 7 2-3 2-35 12-37 15-33 16-21 11-21 13-16 11-13 10-14 12-13 12-9 11-8 11-1 2h6l15 4 32 8 23 6 2 2-1 14 49-7 17-2 32-5 6-2 4 13 7 11 11 12 13 10 2 1v2l-11 1h-64l-16 1h-43l-4-11-3-10v-8l-13-1-9-3-17-3-19-1-33-1 3-12 7-15v-2h-7l-3 1 2-5 12-16 11-12 14-14 9-7 14-11 22-15 28-16 19-10 28-13 30-12 28-10 8-1z" fill="#6C6868"/>
<path transform="translate(1347,99)" d="m0 0 13 3 8 2 20 7 28 11 12 5 15 7 19 9 22 12 18 11 15 10 18 14 10 9 8 7 12 13 13 18 1 4h-9l8 20 2 10h-38l-20 2-18 4-7 2h-8l-1 9-4 15-4 8-1-3h-46l-11-1h-42l-32-1 2-4 9-7 9-8 10-13 5-13 2-4 7 2 24 4 36 5 25 3 11 2-1-15 25-7 50-12h4l-7-11-12-14-14-14-11-9-13-10-18-12-22-13-29-15-31-14-36-14-34-12v-1h6z" fill="#787776"/>
<path transform="translate(721,130)" d="m0 0h2l1 4v61l-4 7-16 12-13 10-34 26-17 14-14 12-17 14-2-2v-68-3-3l11-9 28-21 3-1v-2l9-6 12-9h2v-2l11-7 15-11 16-11z" fill="#737070"/>
<path transform="translate(896,142)" d="m0 0 7 4 17 12 34 25 2 1v2l5 2 6 5 12 9-1 10v67l-6-4-14-12-10-8-14-12-16-12-18-14-5-5-2-4 1-9v-52z" fill="#737070"/>
<path transform="translate(1014,229)" d="m0 0 4 2 14 11 15 13 11 9 10 9 11 9 12 11 11 9 8 8 8 7 4 6 16 15 8 8 8 7 17 16 13 12-1 2-29-12-95-38-23-9-1-2h3l1-2v-18l1-47v-3l-6-4v-2l-5-2v-2l-4-2-8-6-3-3z" fill="#47423F"/>
<path transform="translate(538,220)" d="m0 0m-2 1 2 1 1 40 2 5-14 12-15 13-10 9-8 7-12 11-11 10-6-3h-22l-18-1h-48l1-5 15-10 14-10 9-6v3l7 2 8 3 5 1h3v-2l13-4 11-8 5-5 6-8 1-4h2v-2l11-9 13-11 11-9 16-13z" fill="#A9ACAA"/>
<path transform="translate(702,81)" d="m0 0 3 1-10 8-13 11-11 9-13 11-11 9-13 11-11 9-13 11-17 14-14 12-11 9-13 11-22 18-13 11-10 8-13 11-14 11-4 4h-2v2h-2l-1 6-9 11-12 8-10 4h-4v2l-7 1-5-3-5-2-7-2 1-4 14-10 13-10 10-8 13-10 13-11 14-11 11-9 14-11 13-11 13-10 11-9 16-13 10-8 13-10 16-13 9-7h3v1l20-14 21-14 22-14z" fill="#565150"/>
<path transform="translate(822,99)" d="m0 0 10 3 16 8 12 7 36 24-1 13v51l-1 5 2 3-5-2-13-10-21-14-15-9-15-8-6-3-1-1v-66z" fill="#A9ACAA"/>
<path transform="translate(893,80)" d="m0 0 5 1 15 9 19 12 27 18 20 14 11 8 8 6 6 2 12 10 11 9 16 13 14 11 12 10 14 11 13 11 13 10 12 10 11 9 18 14 15 12 12 9 2 4-8 1-7 4-1 4-5-2-16-13-10-8-9-7v-2l-4-2-17-14-13-11-14-11-9-8-10-8-13-11-11-9-13-11-11-9-13-11-11-9-13-11-11-9-14-12-22-18-13-11-11-9-7-5z" fill="#565150"/>
<path transform="translate(608,371)" d="m0 0h9l6 4-2 2-147 26-15 3 12-1 14 1h9l13 2 17 2 8 1 5 1 12 2 13 3 16 2 21 2 8 1 39 5 27 4 9 1 7 1 43 5h5l3 1 6 1 26 1v1h-50l-62-2-51-3-47-4-42-6-50-10-31-7-11-2-6-4v-1l40-7 19-3 27-5 36-6z" fill="#BFBFBF"/>
<path transform="translate(556,253)" d="m0 0 3 1-15 13-4 3v60l2 2-12 6-44 17-29 12-37 15-4 1 5-6 8-7 9-9 8-7 17-16 4-5 6-7 13-12 14-13 11-9 12-11 11-9 11-10z" fill="#302522"/>
<path transform="translate(986,370)" d="m0 0 37 6 35 6 46 8 43 7 26 5 4 2-8 5h-8l-4 2-53 11-43 7-34 4-49 4-51 3-24 1-45 1v-2l28-3 27-2 8-2 14-1 12-2 41-4 18-2 12-2 32-5 8-1 24-5 10-2 7-2 16-2 10-2-3-1-113-20-28-5-3-2 5-4z" fill="#C0C0C0"/>
<path transform="translate(604,216)" d="m0 0 4 1 1 3-1 1v70l-11 9-7 6-7 10-10 4-6 2-2-1-1-9v-55l-2-6 15-13 10-8 13-11z" fill="#55504F"/>
<path transform="translate(721,130)" d="m0 0h2l1 4v61l-4 7-16 12-13 10-9 7h-2l-2-7v-41l-1-18-1-3 16-12 22-15z" fill="#8A8A8A"/>
<path transform="translate(791,96)" d="m0 0h13l15 2 3 2h-2l1 67-11-2h-19l-14 3-11 5v-2l8-4v-62l-1-5z" fill="#F8F8F8"/>
<path transform="translate(896,142)" d="m0 0 7 4 17 12 19 14-2 2-1 66-4 2-15-12-20-15-4-5 1-11v-52z" fill="#8A8A8A"/>
<path transform="translate(1378,276)" d="m0 0h7l34 6 37 6 28 5 2-5h1l-1 8-5 14-2 1v-3h-46l-11-1h-42l-32-1 2-4 9-7 9-8 8-10z" fill="#898989"/>
<path transform="translate(790,94)" d="m0 0h21l16 4 15 6 17 10 42 28 16 11 18 13 21 16 26 20 1 2-4-1-12-9-11-8v-2l-5-2-21-16-17-12-20-14-30-20-13-8-15-8-11-4-10-2-10-1h-13l-18 4-21 10-25 16-10 7-16 11-17 12-10 7h-2v2l-6 4-15 11h-2v2l-20 15-13 10-9 7-14 11-14 12-11 9-5 5 2 5v64l2 1-24 10-4-2v-60l15-13 4-3v-3l22-18 16-13 28-22 18-14 11-8 19-14 18-13 17-12 27-18 18-11 16-8 16-5z" fill="#47413F"/>
<path transform="translate(215,276)" d="m0 0h7l13 15 13 11 4 2v2l-11 1h-64l-16 1h-43l-4-11 1-4 59-10z" fill="#8A8A8A"/>
<path transform="translate(1348,303)" d="m0 0 2 1-1 1 35 1h38l11 1h43l3 1v5h-2l-1 4-7 10-2-1-10-1h-153l4-2v-2l21-8 16-8z" fill="#A9ACAA"/>
<path transform="translate(252,305)" d="m0 0 20 9 16 6 3 1 3 4h-131l-33 1-9-13v-3h-2v-3h46l12-1h65z" fill="#A9ACAA"/>
<path transform="translate(1084,290)" d="m0 0 8 6 13 12 8 7 10 9 15 14 8 8 8 7 17 16 13 12-1 2-29-12-75-30-1-2 5 1z" fill="#302421"/>
<path transform="translate(627,477)" d="m0 0h329l21 1v1l-11 1-3 1-35 2-9 1-50 2-8 1h-119l-8-1-70-3-41-4z" fill="#F5F5F5"/>
<path transform="translate(674,163)" d="m0 0h3l1 2 1 19v42l1 6-15 12-13 10-7 5-2-6 1-5v-57l-3-3 6-5h2v-2l9-6 12-9h2v-2z" fill="#797877"/>
<path transform="translate(1103,255)" d="m0 0 6 4 14 11v2l4 2 12 10 14 11 9 6 2-4 7-4 6-1 2 1 1-2 16 12 10 7 16 11v3l-6 1-31-1-24-4-13-5-12-7-5-4v-2h-2l-10-20-7-6-5-5-6-5v-8z" fill="#A9ACAA"/>
<path transform="translate(251,99)" d="m0 0 7 2-3 2-35 12-37 15-33 16-21 11-21 13-16 11-13 10-14 12-13 12-9 11-8 11-4 5-5-1-6 1 2-5 12-16 11-12 14-14 9-7 14-11 22-15 28-16 19-10 28-13 30-12 28-10 8-1z" fill="#8D8D8D"/>
<path transform="translate(501,303)" d="m0 0 2 1v3 34l2 6-11 5-74 30-4 1 5-6 8-7 9-9 8-7 17-16 16-15 15-14z" fill="#1F110E"/>
<path transform="translate(1347,99)" d="m0 0 13 3 8 2 20 7 28 11 12 5 15 7 19 9 22 12 18 11 15 10 18 14 10 9 8 7 12 13 13 18 1 4h-11l-8-11-7-9-9-10-11-11-11-9-13-10-18-12-22-13-29-15-31-14-36-14-34-12v-1h6z" fill="#8D8E8D"/>
<path transform="translate(491,235)" d="m0 0m-2 1 2 1-5 5v22l-7 6h-2v2h-2l-1 6-9 11-12 8-10 4h-4v2l-7 1-5-3-5-2-7-2 1-4 14-10 13-10 10-8 13-10 13-11z" fill="#747171"/>
<path transform="translate(538,220)" d="m0 0m-2 1 2 1 1 40 2 5-14 12-15 13-4 3-2-1v-41l-1-4 8-9 14-11z" fill="#C0C0C0"/>
<path transform="translate(936,172)" d="m0 0 7 3 11 8 2 1v2l3 1-2 4v69l1 2-4-2-14-12-6-5 1-3z" fill="#797877"/>
<path transform="translate(608,371)" d="m0 0h9l6 4-2 2-164 29-10 1-2 1-14 1-8-4-1-2 40-7 19-3 27-5 36-6z" fill="#A8ABA9"/>
<path transform="translate(986,370)" d="m0 0 37 6 35 6 46 8 43 7 26 5 4 2-8 5h-6l-8-2-17-3-21-3-108-19-28-5-3-2 5-4z" fill="#A8ABA9"/>
<path transform="translate(1180,403)" d="m0 0 27 1h133l3 3-25 9h-5l3-2-149-1 2-1v-2l8-4z" fill="#BFBFBF"/>
<path transform="translate(418,403)" d="m0 0 9 6 4 1v2l2 1-150 1 3 2-8-1-19-7-1-4h156z" fill="#BFBFBF"/>
<path transform="translate(463,414)" d="m0 0h22l52 6 21 3 63 7 42 5 28 4v1h-31l-51-3-47-4-42-6-50-10-7-2z" fill="#A9ACAA"/>
<path transform="translate(1113,239)" d="m0 0 8 6 11 9 18 14 15 12 12 9 2 4-8 1-7 4-1 4-5-2-16-13-10-8-9-7v-2l-4-2-6-5 1-19z" fill="#747171"/>
<path transform="translate(822,99)" d="m0 0 10 3 8 4-2 1 1 67 2 1-1 2-16-8-4-3v-66z" fill="#C0C0C0"/>
<path transform="translate(771,101)" d="m0 0 3 1 1 8v57l-7 4h-2l-1 3-10 5-1-2 3-3-1-66z" fill="#C0C0C0"/>
<path transform="translate(790,94)" d="m0 0h21l16 4 15 6 17 10 42 28 16 11 18 13 21 16 26 20 1 2-4-1-12-9-11-8v-2l-5-2-21-16-17-12-20-14-30-20-13-8-15-8-11-4-10-2-10-1h-13l-18 4-21 10-25 16-10 7-16 11-17 12-10 7h-2v2l-6 4-15 11h-2v2l-20 15-13 10-9 7-14 11-14 12-11 9-5 4h-2l2-4 17-14 16-13 28-22 18-14 11-8 19-14 18-13 17-12 27-18 18-11 16-8 16-5z" fill="#3C3230"/>
<path transform="translate(251,99)" d="m0 0 7 2-3 2-35 12-37 15-33 16-21 11-7 2-4 1-5-1-2-1 21-12 19-10 28-13 30-12 28-10 8-1z" fill="#ABADAC"/>
<path transform="translate(1347,99)" d="m0 0 13 3 8 2 20 7 28 11 12 5 15 7 19 9 22 12 8 5-1 2-6-3-6 1-6-2-35-18-29-13-36-14-34-12v-1h6z" fill="#ABAEAC"/>
<path transform="translate(620,204)" d="m0 0m-2 1 3 1-1 5 2 1-2 2v8l2 5-2 4v15l1 5 1 3-2 2v16 3h2l-1 5-12 10-2-2v-68-3-3z" fill="#6C6868"/>
<path transform="translate(1121,415)" d="m0 0h11l-3 2-42 8-33 5-49 5-58 4-20 1h-24v-1l37-3 18-2 30-3 15-1 12-2 27-3 16-2 12-2 38-5z" fill="#AAACAB"/>
<path transform="translate(1386,240)" d="m0 0h1v10l26 3 4 1 23 4 14 2 8 2 24 3 2-3v11l-20-2-31-4-29-4-22-4-1-1z" fill="#55504F"/>
<path transform="translate(210,250)" d="m0 0 4 1v7l-5 2-38 6-18 2-30 4-12 1v-11l2 3 24-3 14-3 18-2 10-2 9-2 14-1z" fill="#55504F"/>
<path transform="translate(446,271)" d="m0 0m-2 1 2 1-2 2 2 4 4 1 4 5v3l6-4 11-9 4-2-1 5-9 11-12 8-10 4h-4v2l-7 1-5-3-5-2-7-2 1-4 14-10 13-10z" fill="#8A8A8A"/>
<path transform="translate(1381,268)" d="m0 0 8 2 76 12 22 3-2 9-29-5-37-6-34-6h-8l2-5z" fill="#F9F9F9"/>
<path transform="translate(217,269)" d="m0 0 3 3 2 4-108 18-1-2v-6l21-4 24-4 27-4z" fill="#F9F9F9"/>
<path transform="translate(33,239)" d="m0 0h7l15 4 32 8 23 6 2 2-1 6-15-3-28-6-21-4-14-3h-5l2-6z" fill="#A8ABA9"/>
<path transform="translate(1562,239)" d="m0 0h5l4 6v3l-24 5-25 5-32 7h-2l-1-7 25-7z" fill="#A8ABA9"/>
<path transform="translate(970,198)" d="m0 0 5 1 4 3-1 10v67l-6-4-4-6v-5l1-5-1-12v-17l1-8-1-3v-9-4-7z" fill="#6C6868"/>
<path transform="translate(220,281)" d="m0 0h6l12 13-1 2-2 1h-61l-4-2v-2l3-2 37-8z" fill="#797877"/>
<path transform="translate(1375,281)" d="m0 0 21 3 30 7 3 2v3l-16 1h-49-3l1-4z" fill="#797877"/>
<path transform="translate(214,264)" d="m0 0 3 1 1 4-7 2-44 7-26 4-25 4h-3l-1 4-1-3v-7l1-1 55-8 42-6z" fill="#A8ABA9"/>
<path transform="translate(1382,264)" d="m0 0 31 4 46 7 29 4v9l-3-2-40-6-62-10-2-3z" fill="#A8ABA9"/>
<path transform="translate(1147,266)" d="m0 0 8 6 18 14 6 5v2l-8 1-7 4-1 4-5-2-16-13-2-4 3-7z" fill="#8A8A8A"/>
<path transform="translate(214,257)" d="m0 0 2 4v3l-7 2-34 5-44 6-20 3v-6l4-2 33-4 14-2 23-3 24-4z" fill="#747271"/>
<path transform="translate(1139,341)" d="m0 0 4 2 13 12 15 14 13 12-1 2-29-12-15-6-1-2 1-1-1-4z" fill="#221411"/>
<path transform="translate(1571,246)" d="m0 0 2 2 2 5v3l-29 4-26 4-26 5h-5l-1-4 16-4 36-8 18-3 9-2h4z" fill="#898989"/>
<path transform="translate(1575,261)" d="m0 0h3l2 10h-38l-20 2-18 4-7 2h-8l1-7 9-1 25-4 24-3z" fill="#726F6F"/>
<path transform="translate(29,248)" d="m0 0 8 1 25 5 26 5 22 5 1 3-2 3-28-6-22-3-13-2-14-2h-6l-1-4 2-4z" fill="#898989"/>
<path transform="translate(790,94)" d="m0 0h21l16 4 15 6 17 10 42 28 16 11 18 13 21 16 26 20 1 2-4-1-12-9-11-8v-2l-5-2-21-16-17-12-20-14-30-20-13-8-15-8-11-4-10-2-10-1h-13l-9 2-6-1 4-2z" fill="#3D3432"/>
<path transform="translate(1378,276)" d="m0 0h7l34 6 37 6 28 5 2-5h1l-1 8-2 2-15-2-21-4-68-12h-6z" fill="#B1B3B1"/>
<path transform="translate(215,276)" d="m0 0h7l2 3-56 10-48 9-4 1-2-2 1-4 59-10z" fill="#B2B4B3"/>
<path transform="translate(1543,203)" d="m0 0 6 1 6 4 10 11 13 18 1 4h-11l-8-11-7-9-9-10-3-3v-4z" fill="#7C7C7B"/>
<path transform="translate(1159,408)" d="m0 0 10 1v2l-70 14-45 7-38 4-37 3h-15l1-2 62-5 42-5 45-8 43-9z" fill="#F9F9F9"/>
<path transform="translate(54,203)" d="m0 0 6 3-6 7-9 10-10 14-4 5-5-1-6 1 2-5 12-16 11-12 4-4z" fill="#7B7A79"/>
<path transform="translate(24,255)" d="m0 0 3 1 13 1 16 2 40 7 13 3 1 4-17-2-16-3-24-3-30-3z" fill="#787776"/>
<path transform="translate(1386,240)" d="m0 0h1v10l26 3 4 1 23 4 14 2 8 2 24 3 2-3v7l-50-6-24-4-15-2-12-3-1-1z" fill="#47423F"/>
<path transform="translate(210,250)" d="m0 0 3 1-1 4-46 7-10 2-45 5v-7l2 3 24-3 14-3 18-2 10-2 9-2 14-1z" fill="#47423F"/>
<path transform="translate(462,258)" d="m0 0 1 4 4 11-1 7-10 8h-2l-3-5-1-3-4-1-3-4 5-6z" fill="#7A7978"/>
<path transform="translate(608,371)" d="m0 0h9v1l-57 10-92 16-41 7-3 1-2-3 40-7 19-3 27-5 36-6z" fill="#C0C0C0"/>
<path transform="translate(584,314)" d="m0 0h1l2 12-1 2-36 6-7 1-2-3 24-10 8-3z" fill="#BEBEBE"/>
<path transform="translate(615,374)" d="m0 0h7l1 2-13 3-91 16h-10v-2l8-2 48-8z" fill="#8F8F8F"/>
<path transform="translate(979,374)" d="m0 0h8l64 11 34 6 3 1v2h-11l-96-17-3-2z" fill="#8D8D8D"/>
<path transform="translate(986,370)" d="m0 0 37 6 35 6 46 8 43 7 26 5 4 2h-8l-76-13-28-5-64-11-18-3z" fill="#C0C0C0"/>
<path transform="translate(1015,315)" d="m0 0 14 5 33 13-4 2-44-7-1-4z" fill="#BFBFBF"/>
<path transform="translate(1129,252)" d="m0 0 8 6 10 8-1 6-2 5-3 7h-3l-10-8 2-11v-10z" fill="#7A7978"/>
<path transform="translate(1385,258)" d="m0 0 31 5 36 5 25 3 11 2v3l-13-1-25-3-20-3-42-6-3-1z" fill="#727070"/>
<path transform="translate(23,240)" d="m0 0h7l1 3-7 15-3 10-11-1-1 2 1-7 5-12 4-8z" fill="#575251"/>
<path transform="translate(1384,257)" d="m0 0h1v5l24 3 30 4 18 3 31 4 1-3v10l-1-4h-8l-47-7-49-7-1-4z" fill="#898989"/>
<path transform="translate(1570,240)" d="m0 0h8l4 4 7 16 2 9-2-1h-10l-5-15-5-10z" fill="#585453"/>
<path transform="translate(214,261)" d="m0 0h2v3l-7 2-34 5-44 6-20 3v-4l38-5 13-2 49-7z" fill="#8A8A8A"/>
<path transform="translate(251,99)" d="m0 0 7 2-3 2-36 12-7 1h-9l-4 1v-2l24-9 14-5 8-1z" fill="#C3C3C3"/>
<path transform="translate(1347,99)" d="m0 0 13 3 8 2 20 7 15 6-3 1-6-2h-13l-36-13-6-2v-1h6z" fill="#C4C4C4"/>
<path transform="translate(22,261)" d="m0 0 31 3 24 3 16 3 13 2 4 1-1 4-9-3-10-1-5-1-7-1-11-1-8-1-10-1-3-1h-16l-8-1-1 2z" fill="#726F6F"/>
<path transform="translate(1557,266)" d="m0 0h21l2 2-1 3h-37l-20 2-18 4-7 2h-8v-3h6l1-2h2l8-2 18-2 14-2 15-1z" fill="#6C6868"/>
<path transform="translate(507,393)" d="m0 0m-6 1h6v2l-5 2-45 8-10 1-2 1-14 1-2-2 9-2 57-10z" fill="#8F908F"/>
<path transform="translate(491,235)" d="m0 0m-2 1 2 1-5 5v22l-9 7-2-1v-17-3h2l2-6z" fill="#6C6868"/>
<path transform="translate(901,144)" d="m0 0 4 1 12 8 18 13 21 16 26 20 1 2-4-1-12-9-11-8v-2l-5-2-21-16-17-12-11-8z" fill="#392F2D"/>
<path transform="translate(216,267)" d="m0 0h2l-1 3-50 8-26 4-25 4h-3l-1 4v-7l22-3 53-8 18-3 9-1z" fill="#C0C0C0"/>
<path transform="translate(1381,267)" d="m0 0 37 6 60 9 9 1-1 3-27-4-76-12z" fill="#C0C0C0"/>
<path transform="translate(1582,281)" d="m0 0h10l1 10-2 9h-10l-1-4z" fill="#322623"/>
<path transform="translate(8,282)" d="m0 0h10l1 15-1 3h-7l-2 1-2-9z" fill="#322623"/>
<path transform="translate(584,314)" d="m0 0h1v10l-16 3-10 2h-5l-1-2 16-6z" fill="#A2A5A3"/>
<path transform="translate(10,267)" d="m0 0h10l-2 15-9 1-1 8h-1v-17l1-5h2z" fill="#494441"/>
<path transform="translate(774,98)" d="m0 0 4 1-12 5-19 10-27 18-11 7-2-2 27-18 18-11 16-8z" fill="#3D3331"/>
<path transform="translate(979,374)" d="m0 0h8l46 8 2 2v2l-9-1-45-8-3-2z" fill="#929393"/>
<path transform="translate(1562,239)" d="m0 0h5v3l-12 2-46 11-17 4h-5l3-2 38-10z" fill="#C0C0C0"/>
<path transform="translate(1580,266)" d="m0 0 2 1h7l3 4 1 8v10h-1l-1-7h-8l-2-4z" fill="#4A4643"/>
<path transform="translate(33,239)" d="m0 0h7l15 4 32 8 23 6 1 2-11-2-33-8-16-4-15-3h-4z" fill="#BFBFBF"/>
<path transform="translate(623,199)" d="m0 0 3 1-28 22-11 9-14 12-10 8h-2l2-4 17-14 16-13 14-11z" fill="#362C29"/>
<path transform="translate(1120,319)" d="m0 0 7 6 8 8 8 7 7 7 8 7 8 8 8 7 5 6h-3l-14-14-8-7-17-16-8-8-8-7-2-3z" fill="#838281"/>
<path transform="translate(1015,315)" d="m0 0 14 5 15 6-1 2-11-1-17-3z" fill="#A4A6A4"/>
<path transform="translate(40,226)" d="m0 0 1 2-9 14-7-1-5 1 2-5 10-10h7z" fill="#747171"/>
<path transform="translate(1563,227)" d="m0 0h6l5 4 5 8-1 2h-10l-7-10z" fill="#767473"/>
<path transform="translate(615,374)" d="m0 0h7l1 2-13 3-35 6-3-1 4-3z" fill="#929292"/>
<path transform="translate(522,282)" d="m0 0 2 2-15 13-12 11-8 7-15 14-4 4-3-1 9-9 8-7 16-15 11-9z" fill="#55504F"/>
<path transform="translate(1014,229)" d="m0 0 4 2 14 11 15 13 11 9 10 9 4 3-1 2-12-10-11-9-12-10-2-1v-2l-5-2v-2l-4-2-8-6-3-3z" fill="#3C322F"/>
<path transform="translate(1113,239)" d="m0 0 6 4 2 5h-2v2l2 1h-2v2l2 1-2 7 2 6 2 3-4-2-6-5 1-19z" fill="#6D6969"/>
<path transform="translate(790,94)" d="m0 0h21l16 4 4 2-4 1-13-3-10-1h-13l-9 2-6-1 4-2z" fill="#473E3C"/>
<path transform="translate(1129,399)" d="m0 0 36 6 7 1-3 3h-6l-8-2-17-3-10-1z" fill="#818181"/>
<path transform="translate(466,333)" d="m0 0 2 1-14 14-8 7-17 16-5 4v-3l17-16 8-8 8-7z" fill="#848484"/>
<path transform="translate(1092,393)" d="m0 0 10 1 24 4 1 3h-10l-23-4-5-2z" fill="#898989"/>
<path transform="translate(1373,283)" d="m0 0 8 1 7 4-1 2-13 2-7-2v-2z" fill="#737070"/>
<path transform="translate(221,283)" d="m0 0h7l4 5-1 3h-16v-2l-3-1 6-4z" fill="#737170"/>
<path transform="translate(510,425)" d="m0 0 10 1 42 6 1 2h-9l-33-5-11-2z" fill="#F9F9F9"/>
<path transform="translate(1454,268)" d="m0 0 30 4 4 1v3l-13-1-8-1-5-2-10-1v-2z" fill="#747271"/>
<path transform="translate(146,268)" d="m0 0h5l-1 2-10 2-15 1v2l-6 1h-8l1-3 11-2z" fill="#706D6D"/>
<path transform="translate(214,257)" d="m0 0 1 4-4 2-13 2h-13v-2l24-4z" fill="#726F6E"/>
<path transform="translate(455,402)" d="m0 0 7 1-3 2-2 1-10 1-2 1-14 1-2-2 9-2z" fill="#888887"/>
<path transform="translate(148,278)" d="m0 0h6v2l-38 6h-3l-1 4v-7l22-3z" fill="#C0C0C0"/>
<path transform="translate(979,374)" d="m0 0h8l17 3 2 1v2h-8l-20-4z" fill="#929392"/>
<path transform="translate(953,181)" d="m0 0 4 2 12 9 13 10 1 2-4-1-12-9-11-8v-2l-3-1z" fill="#362C29"/>
<path transform="translate(1035,383)" d="m0 0 16 2 7 2-4 2-11-1-8-2-3-2z" fill="#8D8E8D"/>
<path transform="translate(706,138)" d="m0 0 3 1-15 11-10 7h-2l2-4 19-13z" fill="#382E2B"/>
<path transform="translate(1385,258)" d="m0 0 23 4-3 2h-12l-8-2z" fill="#747272"/>
<path transform="translate(584,230)" d="m0 0 1 3-22 18h-2l2-4 17-14z" fill="#3B322F"/>
<path transform="translate(1094,296)" d="m0 0 8 6 8 8 8 7 2 3-4-2-8-7-10-9-4-3z" fill="#585352"/>
<path transform="translate(1440,267)" d="m0 0h7l5 1v3h10l4 2h-9l-18-3z" fill="#747272"/>
<path transform="translate(1014,229)" d="m0 0 4 2 14 11 7 6-2 2-3-2v-2l-5-2v-2l-4-2-8-6-3-3z" fill="#3A302E"/>
<path transform="translate(1156,353)" d="m0 0 7 6 13 12 3 4h-3l-14-14-6-5z" fill="#ABADAB"/>
<path transform="translate(615,374)" d="m0 0h7l1 2-13 3h-8l1-3z" fill="#909090"/>
<path transform="translate(507,393)" d="m0 0m-6 1h6v2l-5 2-6 1h-10l3-3z" fill="#898989"/>
<path transform="translate(1511,269)" d="m0 0m-8 1h8v2l-9 2-10 3-3-1 2-4 8-1z" fill="#737070"/>
<path transform="translate(879,129)" d="m0 0 4 1 20 13-3 2-19-13z" fill="#413836"/>
<path transform="translate(488,312)" d="m0 0 1 3-15 14-4 4-3-1 9-9 8-7z" fill="#686463"/>
<path transform="translate(901,144)" d="m0 0 4 1 18 12-3 2-17-12z" fill="#3A302D"/>
<path transform="translate(443,354)" d="m0 0 1 3-15 14-5 4v-3l17-16z" fill="#A9ABAA"/>
<path transform="translate(34,235)" d="m0 0 1 2-4 5-5-1-6 1 2-5 7-1h4z" fill="#6E6A6A"/>
<path transform="translate(813,95)" d="m0 0 12 2 6 3-4 1-13-3-10-1v-1z" fill="#534C4A"/>
<path transform="translate(219,277)" d="m0 0 5 1v1l-16 3h-7l1-2z" fill="#A9ACAA"/>
<path transform="translate(115,272)" d="m0 0h9l1 3-6 1h-8l1-3z" fill="#747272"/>
<path transform="translate(1454,268)" d="m0 0 19 3-3 2-18-2v-2z" fill="#706D6D"/>
<path transform="translate(995,214)" d="m0 0 5 2 12 10v2l-6-3v-2l-5-2v-2l-4-2z" fill="#3A2F2D"/>
<path transform="translate(556,253)" d="m0 0 3 1-15 13h-2l2-4z" fill="#3B312E"/>
<path transform="translate(638,187)" d="m0 0 3 1-5 5-6 4-2 2-4-1z" fill="#403735"/>
<path transform="translate(940,171)" d="m0 0 4 2 10 7-2 3-13-10z" fill="#3F3634"/>
<path transform="translate(1405,263)" d="m0 0h12v2l5 1v1l-13-1-7-1z" fill="#747272"/>
<path transform="translate(1571,236)" d="m0 0 5 1 3 2-1 2h-10l-1-4z" fill="#6C6969"/>
<path transform="translate(517,391)" d="m0 0h5l-1 3-2 1h-10v-2z" fill="#898989"/>
<path transform="translate(522,282)" d="m0 0 2 2-15 13-1-3 11-9z" fill="#4C4845"/>
<path transform="translate(121,282)" d="m0 0h6v2l-14 2-1 4v-7z" fill="#BEBEBE"/>
<path transform="translate(652,177)" d="m0 0 3 1-4 3h-2v2l-7 5h-2l2-4z" fill="#382E2B"/>
<path transform="translate(1129,399)" d="m0 0 16 3v1h-17z" fill="#8B8B8B"/>
<path transform="translate(575,381)" d="m0 0m-6 1h6l-3 3-2 1h-9l4-3z" fill="#8B8B8B"/>
<path transform="translate(717,130)" d="m0 0 3 1-3 3-8 5-2-2z" fill="#423A38"/>
<path transform="translate(1158,405)" d="m0 0 14 1-3 3h-6z" fill="#8F8F8F"/>
<path transform="translate(1392,259)" d="m0 0 16 3-3 2-11-1v-2h-2z" fill="#6F6C6C"/>
<path transform="translate(214,257)" d="m0 0 1 4-4 2h-6v-2z" fill="#767373"/>
<path transform="translate(995,376)" d="m0 0 9 1 2 1v2h-8l-3-2z" fill="#8C8C8C"/>
<path transform="translate(831,100)" d="m0 0 9 3 4 3-3 1-11-5z" fill="#453D3B"/>
<path transform="translate(784,95)" d="m0 0 7 1-4 2-9 1-2-2z" fill="#57514F"/>
<path transform="translate(706,138)" d="m0 0 3 1-9 7-3-1 4-4z" fill="#3B322F"/>
<path transform="translate(1120,319)" d="m0 0 7 6 3 4-4-1-7-7z" fill="#706D6D"/>
<path transform="translate(595,221)" d="m0 0 3 1-11 9-2 1 1-4z" fill="#342927"/>
<path transform="translate(584,230)" d="m0 0 1 3-8 6-3-1z" fill="#3D3331"/>
<path transform="translate(606,212)" d="m0 0h2l-2 4-7 5-3-1z" fill="#3D3331"/>
<path transform="translate(1e3 476)" d="m0 0h15l-2 2-7 1-6-2z" fill="#514C4A"/>
<path transform="translate(452,455)" d="m0 0h8l7 2v2l-15-3z" fill="#BABBBA"/>
<path transform="translate(1081,391)" d="m0 0 7 1v2h-11v-2z" fill="#878787"/>
<path transform="translate(1059,266)" d="m0 0 5 3 8 7-1 2-12-10z" fill="#3F3533"/>
</svg>
